<svg width="160" height="52" viewBox="0 0 160 52" fill="none" xmlns="http://www.w3.org/2000/svg">
<path d="M79.8062 20.6382C85.7502 20.3502 87.0612 24.4282 87.0612 24.4282C87.0612 24.4282 89.9632 37.9702 98.1852 44.9032C105.862 51.3762 123.335 52.3192 134.459 49.9012C145.583 47.4832 150.419 36.3592 150.419 36.3592C150.419 36.3592 159.447 15.5622 159.608 6.8562C159.769 -1.8498 150.902 0.0852086 139.778 0.407209C128.654 0.729209 98.9902 7.50021 90.1232 9.75821C85.7502 10.8712 82.2402 11.0042 79.8052 10.8532C77.3702 11.0042 73.8602 10.8712 69.4872 9.75821C60.6202 7.50121 30.9562 0.729202 19.8322 0.406202C8.70818 0.0842015 -0.158842 -1.85081 0.0021582 6.85519C0.163158 15.5612 9.19118 36.3582 9.19118 36.3582C9.19118 36.3582 14.0272 47.4822 25.1512 49.9002C36.2752 52.3182 53.7472 51.3762 61.4252 44.9032C69.6472 37.9712 72.5492 24.4292 72.5492 24.4292C72.5492 24.4292 73.8612 20.3492 79.8062 20.6382ZM145.904 34.1002C141.712 45.0632 128.331 47.1592 111.726 45.8692C95.1212 44.5792 89.9622 29.1022 92.8642 20.2362C95.7662 11.3692 121.883 8.6282 121.883 8.6282C129.621 7.1772 149.29 7.33822 149.935 12.0142C150.4 15.3832 150.096 23.1382 145.904 34.1002ZM9.67718 12.0132C10.3222 7.33821 29.9902 7.1772 37.7292 8.6282C37.7292 8.6282 63.8462 11.3692 66.7482 20.2362C69.6502 29.1032 64.4912 44.5802 47.8852 45.8692C31.2802 47.1582 17.8992 45.0622 13.7082 34.0992C9.51518 23.1372 9.21218 15.3822 9.67718 12.0132Z" fill="#FFD081"/>
<mask id="mask0_27_641" style="mask-type:alpha" maskUnits="userSpaceOnUse" x="0" y="0" width="160" height="52">
<path d="M79.8062 20.6382C85.7502 20.3502 87.0612 24.4282 87.0612 24.4282C87.0612 24.4282 89.9632 37.9702 98.1852 44.9032C105.862 51.3762 123.335 52.3192 134.459 49.9012C145.583 47.4832 150.419 36.3592 150.419 36.3592C150.419 36.3592 159.447 15.5622 159.608 6.8562C159.769 -1.8498 150.902 0.0852086 139.778 0.407209C128.654 0.729209 98.9902 7.50021 90.1232 9.75821C85.7502 10.8712 82.2402 11.0042 79.8052 10.8532C77.3702 11.0042 73.8602 10.8712 69.4872 9.75821C60.6202 7.50121 30.9562 0.729202 19.8322 0.406202C8.70818 0.0842015 -0.158842 -1.85081 0.0021582 6.85519C0.163158 15.5612 9.19118 36.3582 9.19118 36.3582C9.19118 36.3582 14.0272 47.4822 25.1512 49.9002C36.2752 52.3182 53.7472 51.3762 61.4252 44.9032C69.6472 37.9712 72.5492 24.4292 72.5492 24.4292C72.5492 24.4292 73.8612 20.3492 79.8062 20.6382ZM145.904 34.1002C141.712 45.0632 128.331 47.1592 111.726 45.8692C95.1212 44.5792 89.9622 29.1022 92.8642 20.2362C95.7662 11.3692 121.883 8.6282 121.883 8.6282C129.621 7.1772 149.29 7.33822 149.935 12.0142C150.4 15.3832 150.096 23.1382 145.904 34.1002ZM9.67718 12.0132C10.3222 7.33821 29.9902 7.1772 37.7292 8.6282C37.7292 8.6282 63.8462 11.3692 66.7482 20.2362C69.6502 29.1032 64.4912 44.5802 47.8852 45.8692C31.2802 47.1582 17.8992 45.0622 13.7082 34.0992C9.51518 23.1372 9.21218 15.3822 9.67718 12.0132Z" fill="#211615"/>
</mask>
<g mask="url(#mask0_27_641)">
<path d="M-35 -6H50L10 57H-35V-6Z" fill="white"/>
</g>
</svg>
